<svg id="Layer_1" data-name="Layer 1" xmlns="http://www.w3.org/2000/svg" viewBox="0 0 365 500"><defs><style>.cls-1{fill:#000e22;}.cls-2{fill:#dbcfa2;}</style></defs><title>back-dw</title><rect class="cls-1" width="365" height="500"/><path id="icon-logo" class="cls-2" d="M44.66,256h2.72a5.73,5.73,0,0,0,5.69-5.22c.15-3.31-2-5.88-5.35-5.88h-3.1V256Zm2.18-10h.39c2.61,0,3.94,1.33,3.94,3.89,0,2.31-1.09,3.88-3.94,3.88h-.39Zm20.51,7.77.78,2.22h2.35l-4.1-11.1H64.75L60.56,256h2.3l.87-2.22Zm-.49-1.11H64.23l1.2-4.44h0l1.39,3.68ZM79,256h2.22v-7.77h0L87.13,256H89v-11.1H86.8v7.77h0l-5.83-7.77H79V256Zm23.31-11.1h-2.22V256h2.22v-11.1ZM119,247.11v-2.26h-5.55V256H119v-2.22h-3.33v-2.22H119v-2.22h-3.33v-2.22H119v0Zm12.22-2.26H129V256h5.55v-2.22h-3.33v-8.88Zm23.86,0h-2.2l3.45,11.1h1.45l2.23-7.77h0l2.38,7.77h1.45l3.67-11.1h-2.19l-2.24,7.77h0l-2.33-7.77h-1.3l-2.23,7.77h0l-2.19-7.77Zm26.09,2.26v-2.26h-5.55V256h5.55v-2.22h-3.33v-2.22h3.33v-2.22h-3.33v-2.22h3.33v0Zm13.32-2.26h-2.22V256h5.55v-2.22h-3.33v-8.88Zm14.43,0h-2.22V256h5.55v-2.22h-3.33v-8.88Zm16.65,0h-2.22V256h2.22v-11.1ZM236.67,256h2.22v-7.77h0l5.83,7.77h1.9v-11.1h-2.22v7.77h-.05l-5.83-7.77h-1.89V256Zm25.53-5.89v1.45H264a2.67,2.67,0,0,1-2.55,2.8c-2.08,0-3.14-2-3.14-3.88s1-4,3.1-4a2.89,2.89,0,0,1,2.54,1.75l1.89-1a4.72,4.72,0,0,0-4.39-2.63c-3.32,0-5.4,2.73-5.4,5.87s2,5.77,5.27,5.77c3.41,0,5-2.77,5.36-5.91v-1H262.2v.77Zm17.76-3h2.22v-2.22h-6.66v2.22h2.22V256H280v-8.88Zm16.34,9.18a5.86,5.86,0,1,0-5.5-5.87A5.6,5.6,0,0,0,296.3,256.25Zm0-9.56a3.48,3.48,0,0,1,3.23,3.6c0,1.66-1.43,3.79-3.23,3.79s-3.24-2.13-3.24-3.79A3.47,3.47,0,0,1,296.3,246.69ZM311,256h2.22v-7.77h.05l5.83,7.77h.78v-11.1H317.7v7.77h0l-5.83-7.77H311V256Z" transform="translate(0.23 -0.41)"/></svg>