<svg id="Layer_1" data-name="Layer 1" xmlns="http://www.w3.org/2000/svg" viewBox="0 0 275.31 11.69"><defs><style>.cls-1{fill:#dbcfa2;}</style></defs><title>dw-card</title><path id="icon-logo" class="cls-1" d="M.66,11.61H3.38A5.73,5.73,0,0,0,9.07,6.38c.15-3.3-2-5.87-5.35-5.87H.62v11.1Zm2.18-10h.39C5.84,1.62,7.17,3,7.17,5.51c0,2.31-1.09,3.88-3.94,3.88H2.84ZM23.35,9.39l.78,2.22h2.35L22.38.51H20.75l-4.19,11.1h2.3l.87-2.22Zm-.49-1.11H20.23l1.2-4.44h0l1.39,3.68ZM35,11.61h2.22V3.84h0l5.83,7.77H45V.51H42.8V8.28h0L36.93.51H35v11.1ZM58.34.51H56.12v11.1h2.22V.51ZM75,2.77V.51H69.44v11.1H75V9.39H71.66V7.17H75V5H71.66V2.73H75v0ZM87.21.51H85v11.1h5.55V9.39H87.21V.51Zm23.86,0h-2.2l3.45,11.1h1.45L116,3.84h0l2.38,7.77h1.45L123.54.51h-2.19l-2.24,7.77h0L116.79.51h-1.3l-2.23,7.77h0L111.07.51Zm26.09,2.26V.51h-5.55v11.1h5.55V9.39h-3.33V7.17h3.33V5h-3.33V2.73h3.33v0ZM150.48.51h-2.22v11.1h5.55V9.39h-3.33V.51Zm14.43,0h-2.22v11.1h5.55V9.39h-3.33V.51Zm16.65,0h-2.22v11.1h2.22V.51Zm11.11,11.1h2.22V3.84h0l5.83,7.77h1.9V.51h-2.22V8.28h-.05L194.56.51h-1.89v11.1ZM218.2,5.72V7.17H220a2.67,2.67,0,0,1-2.55,2.8c-2.08,0-3.14-2-3.14-3.88s1-4,3.1-4a2.9,2.9,0,0,1,2.54,1.76l1.89-1A4.71,4.71,0,0,0,217.41.22C214.09.22,212,3,212,6.09s2,5.77,5.27,5.77c3.41,0,5-2.77,5.36-5.91V5H218.2v.77Zm17.76-3h2.22V.51h-6.66V2.73h2.22v8.88H236V2.73Zm16.34,9.18A5.6,5.6,0,0,0,257.79,6a5.5,5.5,0,1,0-11,0A5.6,5.6,0,0,0,252.3,11.91Zm0-9.57A3.49,3.49,0,0,1,255.53,6c0,1.66-1.43,3.79-3.23,3.79S249.06,7.61,249.06,6A3.48,3.48,0,0,1,252.3,2.34ZM267,11.61h2.22V3.84h.05l5.83,7.77h.78V.51H273.7V8.28h0L267.83.51H267v11.1Z" transform="translate(-0.62 -0.22)"/></svg>