<svg id="Layer_1" data-name="Layer 1" xmlns="http://www.w3.org/2000/svg" viewBox="0 0 292.4 12.4"><defs><style>.cls-1{fill:#2f2f2f;}</style></defs><title>dw</title><path id="icon-logo" class="cls-1" d="M3.85,15.86H7.09A5.61,5.61,0,0,0,12.77,10,5.56,5.56,0,0,0,7.08,4.09H3.8V15.86ZM6.15,6.1h.4c2.59,0,3.92,1.33,3.92,3.88,0,2.3-1.08,3.87-3.92,3.87h-.4Zm21.92,7.31.88,2.5H31.4L26.94,3.85H25.18L20.62,15.91H23l1-2.5Zm-.64-1.87H24.64l1.27-4.26H26l1.47,4.27Zm13.39,4.32h2.3V7.92h.05l6.18,8.23H51v-12h-2.3V12h-.05L42.48,3.8H40.82V15.86ZM64.55,4.14H62.24V15.91h2.3V4.14Zm17.89,2v-2H76.36V15.86h6.08v-2H78.67V10.66h3.62v-2H78.67V6.05h3.77v0Zm14-2h-2.3V15.91h5.54v-2H96.41V4.14Zm24.66,0h-2.4l3.73,12h1.66l2.21-7.69h0l2.35,7.69h1.67l4-12h-2.4l-2.3,8h-.05l-2.45-8.19h-1.38l-2.35,8.19h0l-2.26-8Zm28.15,2v-2h-6.08V15.86h6.08v-2h-3.78V10.66h3.63v-2h-3.63V6.05h3.78v0Zm13.48-2h-2.31V15.91h5.54v-2H162.7V4.14Zm15.88,0h-2.3V15.91h5.54v-2h-3.24V4.14Zm16.92,0h-2.31V15.91h2.31V4.14Zm12.3,11.72h2.31V7.92h0l6.17,8.23H218v-12h-2.3V12h0L209.47,3.8H207.8V15.86Zm26.28-6.23v1.86h2.5a2.74,2.74,0,0,1-2.69,2.65c-2.21,0-3.34-2.15-3.34-4.12s1.08-4.21,3.29-4.21a3.06,3.06,0,0,1,2.69,1.86l2-1.08a5,5,0,0,0-4.65-2.79c-3.53,0-5.74,2.89-5.74,6.22s2.16,6.13,5.59,6.13c3.63,0,5.34-2.94,5.34-6.27v-.3h-5v.05ZM253.74,6.1h2.35v-2h-7v2h2.36v9.76h2.3V6.1ZM270.9,16.2A6,6,0,0,0,276.74,10a5.84,5.84,0,1,0-11.67,0A5.94,5.94,0,0,0,270.9,16.2Zm0-10.15a3.69,3.69,0,0,1,3.43,3.83c0,1.76-1.52,4-3.43,4s-3.43-2.26-3.43-4A3.69,3.69,0,0,1,270.9,6.05ZM286,15.86h2.31V7.92h.05l6.17,8.23h1.67v-12h-2.3V12h0L287.67,3.8H286V15.86Z" transform="translate(-3.8 -3.8)"/></svg>