<svg width="82" height="69" viewBox="0 0 82 69" fill="none" xmlns="http://www.w3.org/2000/svg">
<g clip-path="url(#clip0)">
<path d="M38.0994 37.2668C37.5279 37.2668 36.7018 37.4256 36.119 38.2251C35.4852 39.0983 35.3438 39.9828 35.6776 40.924C36.2604 42.557 38.1729 44.0539 40.4362 44.6492C41.3981 44.9044 42.411 45.0802 43.4408 45.1936C43.3672 44.8533 43.2937 44.5245 43.2258 44.207C42.8636 42.5456 42.5524 41.1111 42.162 40.3173C41.2906 38.5426 39.8647 37.4029 38.354 37.2725C38.2804 37.2725 38.1899 37.2668 38.0994 37.2668ZM2.91057 68.1799C1.73365 68.1799 0.754771 67.25 0.709505 66.0593C0.658581 64.897 -0.297668 37.4256 15.5172 19.2701C24.5874 8.84856 35.9662 2.44708 48.4144 0.763078L48.5955 0.740397C49.3763 0.632667 50.1741 0.955859 50.6551 1.59657C51.136 2.23162 51.2379 3.08213 50.921 3.81356C49.9082 6.14395 48.7935 8.80887 48.0975 10.5723C49.8629 11.2016 52.2564 12.449 54.5366 14.9098C56.8282 17.382 58.6332 20.2227 59.9516 22.2922C60.3477 22.9159 60.6985 23.4659 60.9758 23.8685C61.6378 24.5489 65.1685 26.9133 67.7544 28.6484C72.0207 31.5004 76.4342 34.4545 78.0581 36.1668C81.0004 39.274 82.2509 42.5683 81.3116 44.757C80.9891 45.5167 77.7865 51.6631 76.4228 52.8765C75.161 53.9991 71.568 54.6739 69.6216 54.413C68.4107 54.2543 67.528 53.761 66.9962 52.9445C66.6567 52.4229 66.4417 51.8559 66.2323 51.3002C65.7344 49.9791 65.3666 49.1456 64.0708 48.6466C63.2277 48.3177 60.1157 48.3177 56.5566 48.8961C54.4631 49.2363 51.9282 49.5878 49.2348 49.7296C50.7003 54.0785 53.2692 59.1759 58.4805 64.4037C59.3405 65.2655 59.3405 66.666 58.4805 67.5335C57.6204 68.3954 56.2228 68.3954 55.3628 67.5335C48.9746 61.132 46.1341 54.7873 44.6064 49.7353C42.807 49.6332 41.019 49.3837 39.3159 48.9358C35.5928 47.9492 32.6052 45.4544 31.5245 42.4152C30.6983 40.0905 31.0605 37.6807 32.5486 35.6282C33.9519 33.689 36.2661 32.6628 38.7331 32.8725C41.7999 33.1334 44.5611 35.1916 46.1228 38.3668C46.7509 39.6426 47.096 41.2415 47.5374 43.2657C47.6788 43.9178 47.8316 44.6152 48.007 45.3523C51.3227 45.2559 54.316 44.774 55.855 44.5245C57.4846 44.2637 63.0071 43.4812 65.6721 44.5188C68.869 45.7606 69.8083 48.2497 70.3628 49.7353C70.4024 49.8316 70.442 49.9394 70.4817 50.0471C71.3361 50.0755 72.8977 49.7806 73.5371 49.4971C74.3293 48.4992 76.6718 44.292 77.2093 43.1126C77.198 42.7271 76.8133 41.2642 74.8555 39.2003C73.5711 37.8452 68.9879 34.7777 65.3043 32.3169C60.0025 28.7731 58.0844 27.4406 57.3941 26.4541C57.0546 25.9721 56.6698 25.3654 56.2285 24.668C55.0006 22.7402 53.3258 20.0979 51.3001 17.9206C48.2786 14.666 45.2231 14.3598 45.0986 14.3485C44.3121 14.2805 43.5935 13.7928 43.2654 13.0727C42.8749 12.2279 42.7052 11.8594 45.2514 5.82076C35.3438 8.04342 26.2736 13.6454 18.8386 22.1788C4.17237 39.0189 5.10598 65.6114 5.1173 65.8779C5.16822 67.0969 4.22329 68.1289 3.00676 68.1799C2.97281 68.1799 2.94452 68.1799 2.91057 68.1799Z" fill="black"/>
</g>
<defs>
<clipPath id="clip0">
<rect x="0.680542" y="0.715942" width="80.9359" height="67.4622" fill="white"/>
</clipPath>
</defs>
</svg>
