<svg id="Layer_1" data-name="Layer 1" xmlns="http://www.w3.org/2000/svg" viewBox="0 0 174.69 298.28"><defs><style>.cls-1{fill:#212121;}.cls-2{fill:#fff;}</style></defs><title>pentool</title><rect class="cls-1" x="122.12" y="160.9" width="18.28" height="15.99" transform="matrix(0.91, -0.41, 0.41, 0.91, -58.32, 68.05)"/><polygon class="cls-1" points="123.42 220.76 106.72 228.2 90.02 235.64 75.14 202.25 58.44 209.69 73.32 243.08 46.19 255.17 53.63 271.87 78.68 260.71 95.42 298.27 130.9 282.46 166.38 266.65 149.64 229.08 174.69 217.92 167.24 201.22 140.11 213.32 125.23 179.92 108.53 187.36 123.42 220.76"/><rect class="cls-1" x="127.65" y="116.99" width="18.28" height="38.84" transform="translate(-44.62 67.49) rotate(-24.02)"/><rect class="cls-1" x="95.15" y="88.95" width="18.28" height="38.84" transform="translate(-36.02 51.83) rotate(-24.02)"/><rect class="cls-1" x="62.64" y="60.91" width="18.28" height="38.84" transform="translate(-27.42 36.17) rotate(-24.02)"/><rect class="cls-1" x="38.64" y="198.11" width="18.28" height="15.99" transform="translate(-80.7 37.29) rotate(-24.02)"/><rect class="cls-1" x="10.78" y="169.08" width="18.28" height="38.84" transform="translate(-75.95 24.43) rotate(-24.02)"/><rect class="cls-1" x="11.66" y="126.16" width="18.28" height="38.84" transform="translate(-58.4 21.07) rotate(-24.02)"/><rect class="cls-1" x="12.54" y="83.24" width="18.28" height="38.84" transform="translate(-40.85 17.71) rotate(-24.02)"/><polygon class="cls-1" points="62.09 150.52 70.44 146.8 78.79 143.08 46.23 70.03 54.58 66.31 38.77 30.83 28.34 35.48 12.52 0 6.26 2.79 0 5.58 15.81 41.06 5.38 45.71 21.19 81.19 29.54 77.47 62.09 150.52"/><rect class="cls-2" x="108.01" y="245.12" width="15.81" height="42.43" transform="translate(329.27 462.42) rotate(155.98)"/></svg>