<svg id="Layer_1" data-name="Layer 1" xmlns="http://www.w3.org/2000/svg" viewBox="0 0 396 336"><defs><style>.cls-1{fill:#fff;}.cls-2{fill:#eee;}.cls-3{fill:#2f2f2f;}</style></defs><title>thumbs-up</title><polygon class="cls-1" points="321.12 217.77 321.12 238.57 354.32 238.57 354.32 276.89 294.11 276.89 294.11 297.68 332.52 297.68 332.52 315 333 315 333 315.21 332.52 315.21 332.52 336 124 336 124 284 104.21 284 104.21 159.4 125.05 159.4 125.05 138.61 145.9 138.61 145.9 117.81 166.74 117.81 166.74 97.02 187.58 97.02 187.58 0 236.21 0 236.21 20.79 257.05 20.79 257.05 117.81 354.32 117.81 354.32 164.84 330 164.84 330 185.63 396 185.63 396 217.77 321.12 217.77"/><polygon class="cls-2" points="100.52 159.4 104.21 159.4 104.21 284 124 284 124 315 104 315 104 284.14 100.52 284.14 100.52 159.4"/><rect class="cls-2" x="104.21" y="138.61" width="20.84" height="20.79"/><rect class="cls-2" x="125.05" y="117.81" width="20.85" height="20.8"/><rect class="cls-2" x="145.9" y="97.02" width="20.84" height="20.79"/><rect class="cls-2" x="166.74" y="62.37" width="20.84" height="34.65"/><polygon class="cls-3" points="83 159.4 83 159 21 159 21 159.4 20.84 159.4 20.84 284.14 83.37 284.14 83.37 304.94 0 304.94 0 138.61 83.37 138.61 83.37 159.4 83 159.4"/><rect class="cls-3" x="21" y="159" width="62" height="0.4"/><rect class="cls-3" x="104.21" y="138.61" width="20.84" height="20.79"/><path class="cls-1" d="M20.86,159.84v124.6h62V159.84ZM68.11,274.19H47.27V253.4H68.11Z" transform="translate(0.14 -0.44)"/><rect class="cls-2" x="47.41" y="252.96" width="20.84" height="20.79"/><rect class="cls-2" x="21" y="159" width="62" height="0.4"/><rect class="cls-3" x="47.41" y="252.96" width="20.84" height="20.79"/><rect class="cls-3" x="125.05" y="117.81" width="20.85" height="20.8"/><rect class="cls-3" x="145.9" y="97.02" width="20.84" height="20.79"/><rect class="cls-3" x="166.74" y="62.37" width="20.84" height="34.65"/><polygon class="cls-3" points="236.21 0 236.21 20.79 208.42 20.79 208.42 62.37 187.58 62.37 187.58 0 236.21 0"/><path class="cls-3" d="M256.91,21.23H236.07v97h20.84Z" transform="translate(0.14 -0.44)"/><path class="cls-3" d="M354.18,118.25H256.91v20.8h97.27Z" transform="translate(0.14 -0.44)"/><polygon class="cls-3" points="375.16 138.61 375.16 185.63 330 185.63 330 164.84 354.32 164.84 354.32 138.61 375.16 138.61"/><path class="cls-3" d="M395.86,186.07H375v32.14h20.84Z" transform="translate(0.14 -0.44)"/><polygon class="cls-3" points="375.16 217.77 375.16 276.89 354.32 276.89 354.32 238.57 321.12 238.57 321.12 217.77 375.16 217.77"/><polygon class="cls-3" points="353.36 276.89 353.36 315.21 333 315.21 333 315 332.52 315 332.52 297.68 294.11 297.68 294.11 276.89 353.36 276.89"/><rect class="cls-3" x="332.52" y="315" width="0.48" height="0.21"/><rect class="cls-3" x="124" y="315" width="209" height="21"/><rect class="cls-3" x="104" y="284" width="20" height="31"/><rect class="cls-3" x="83.37" y="159.4" width="20.84" height="124.74"/></svg>