<?xml version="1.0" encoding="utf-8"?>
<!-- Generator: Adobe Illustrator 23.1.0, SVG Export Plug-In . SVG Version: 6.00 Build 0)  -->
<svg version="1.1" id="Layer_1" xmlns="http://www.w3.org/2000/svg" xmlns:xlink="http://www.w3.org/1999/xlink" x="0px" y="0px"
	 viewBox="0 0 421 1080" style="enable-background:new 0 0 421 1080;" xml:space="preserve">
<style type="text/css">
	.st0{fill:#4F80FF;}
</style>
<path class="st0" d="M44.6,521.54l57.79,24.09c-0.99,61.13,25.86,113.71,50,160.92c15.41,30.14,29.62,57.94,34.29,83.99
	l-32.01-13.35l-40.71,97.65l19.86,8.28c-12.24,5.69-25.38,10-38.34,14.24c-34.54,11.31-70.25,23-87,60.02
	c-18.64,41.18-5.88,96.57,37.9,164.63l8.01-5.15c-41.93-65.17-54.45-117.51-37.23-155.55c15.02-33.19,47.21-43.73,81.29-54.89
	c16.01-5.24,32.27-10.58,47.07-18.41l66.1,27.56l40.71-97.65l-55.18-23c-3.73-29.03-19.31-59.51-36.27-92.69
	c-23.07-45.12-48.69-95.28-48.95-152.61l30.34,12.65l40.71-97.65l-40.3-16.8c18.28-26.17,43.03-47.18,69.93-69.99
	c41.4-35.11,87.67-74.37,126.25-142.82l41.53,17.31l40.71-97.65l-41.05-17.11c16.63-55.72,23.91-115.78,21.64-179.4l-9.52,0.34
	c2.22,62.21-4.82,120.92-20.96,175.38l-47.76-19.91l-40.71,97.65l47.27,19.71c-37.7,66.43-83,104.86-123.55,139.25
	c-28.08,23.81-53.9,45.71-72.85,73.47l-48.28-20.13L44.6,521.54z"/>
</svg>
