<svg id="Layer_1" data-name="Layer 1" xmlns="http://www.w3.org/2000/svg" viewBox="0 0 174.68 298.28"><defs><style>.cls-1{fill:#212121;}.cls-2{fill:#fff;}</style></defs><title>pentool</title><polygon class="cls-1" points="141.92 172.48 125.23 179.93 118.72 165.32 135.41 157.88 141.92 172.48"/><polygon class="cls-1" points="149.64 229.09 166.38 266.65 130.9 282.47 130.83 282.5 113.56 243.74 99.12 250.18 116.39 288.93 95.42 298.28 78.68 260.71 53.63 271.87 46.19 255.18 73.32 243.08 58.44 209.69 75.14 202.25 90.02 235.64 106.72 228.2 123.41 220.76 108.53 187.37 125.23 179.93 140.11 213.32 167.24 201.23 174.68 217.92 149.64 229.09"/><polygon class="cls-1" points="152.11 150.43 135.41 157.88 119.6 122.39 136.3 114.95 152.11 150.43"/><polygon class="cls-1" points="119.6 122.39 102.9 129.84 87.09 94.35 103.79 86.91 119.6 122.39"/><rect class="cls-1" x="62.63" y="60.91" width="18.29" height="38.84" transform="translate(-27.44 36.21) rotate(-24.04)"/><rect class="cls-1" x="38.63" y="198.11" width="18.28" height="15.99" transform="translate(-80.68 37.28) rotate(-24.01)"/><rect class="cls-1" x="10.77" y="169.08" width="18.28" height="38.84" transform="translate(-75.93 24.42) rotate(-24.01)"/><polygon class="cls-1" points="36.12 159.6 19.42 167.04 3.61 131.56 20.3 124.12 36.12 159.6"/><rect class="cls-1" x="12.54" y="83.24" width="18.28" height="38.84" transform="translate(-40.84 17.71) rotate(-24.01)"/><polygon class="cls-2" points="125.23 179.93 108.53 187.37 123.41 220.76 106.72 228.2 90.02 235.64 75.14 202.25 58.44 209.69 51.93 195.08 35.23 202.52 19.42 167.04 36.12 159.6 20.3 124.12 37 116.68 21.19 81.2 29.54 77.48 62.09 150.53 70.44 146.81 78.79 143.08 46.23 70.04 54.58 66.32 70.39 101.8 87.09 94.35 102.9 129.84 119.6 122.39 135.41 157.88 118.72 165.32 125.23 179.93"/><polygon class="cls-1" points="78.79 143.08 70.44 146.81 62.09 150.53 29.54 77.48 21.19 81.2 5.37 45.72 15.81 41.07 0 5.59 6.26 2.79 12.52 0 28.33 35.48 38.77 30.83 54.58 66.32 46.23 70.04 78.79 143.08"/><polygon class="cls-2" points="130.83 282.5 116.39 288.93 99.12 250.18 113.56 243.74 130.83 282.5"/></svg>