<?xml version="1.0" encoding="utf-8"?>
<!-- Generator: Adobe Illustrator 23.1.0, SVG Export Plug-In . SVG Version: 6.00 Build 0)  -->
<svg version="1.1" xmlns="http://www.w3.org/2000/svg" xmlns:xlink="http://www.w3.org/1999/xlink" x="0px" y="0px"
	 viewBox="0 0 1920 1080" style="enable-background:new 0 0 1920 1080;" xml:space="preserve">
<style type="text/css">
	.st0{fill:#DADCE7;}
	.st1{display:none;}
	.st2{display:inline;}
	.st3{fill:#FFF000;}
	.st4{display:inline;fill:none;stroke:#FFFFFF;stroke-width:18;stroke-miterlimit:10;}
	.st5{fill:#FFFFFF;}
	.st6{opacity:0.7;}
	.st7{fill:#E7E7E7;}
	.st8{fill:#D2CB00;}
	.st9{fill:#E8E000;}
	.st10{display:inline;fill:#E8E000;}
	.st11{display:inline;fill:#FFFFFF;}
</style>
<g id="Layer_1">
	<g>
		<rect class="st0" width="1920" height="1080"/>
	</g>
	<g class="st1">
		<g id="XMLID_1_" class="st2">
			<path class="st3" d="M1300,610.5c-60.5,0-117.38-23.56-160.16-66.34c-42.78-42.78-66.34-99.66-66.34-160.16
				s23.56-117.38,66.34-160.16c42.78-42.78,99.66-66.34,160.16-66.34s117.38,23.56,160.16,66.34
				c42.78,42.78,66.34,99.66,66.34,160.16s-23.56,117.38-66.34,160.16C1417.38,586.94,1360.5,610.5,1300,610.5z"/>
			<path class="st0" d="M1300,158c30.51,0,60.11,5.98,87.97,17.76c26.91,11.38,51.08,27.68,71.84,48.43
				c20.76,20.76,37.05,44.93,48.43,71.84c11.78,27.86,17.76,57.46,17.76,87.97s-5.98,60.11-17.76,87.97
				c-11.38,26.91-27.68,51.08-48.43,71.84c-20.76,20.76-44.93,37.05-71.84,48.43C1360.11,604.02,1330.51,610,1300,610
				s-60.11-5.98-87.97-17.76c-26.91-11.38-51.08-27.68-71.84-48.43c-20.76-20.76-37.05-44.93-48.43-71.84
				C1079.98,444.11,1074,414.51,1074,384s5.98-60.11,17.76-87.97c11.38-26.91,27.68-51.08,48.43-71.84
				c20.76-20.76,44.93-37.05,71.84-48.43C1239.89,163.98,1269.49,158,1300,158 M1300,157c-125.37,0-227,101.63-227,227
				s101.63,227,227,227s227-101.63,227-227S1425.37,157,1300,157L1300,157z"/>
		</g>
		<path class="st4" d="M1395.13,177.84c-16.98,3.08-36.32,8.89-55.63,19.66c-92.26,51.48-87.61,162.58-167,194
			c-18.9,7.48-50.42,13.56-99.46-3.65c-3.74-1.31-7.59-2.76-11.54-4.35"/>
	</g>
	<polygon class="st5" points="1920,430.43 1920,628.05 753.59,0 1120.61,0 	"/>
	<g>
		<g class="st6">
			<g>
				<g>
					<path class="st7" d="M1207.35-431.94c-0.08,0.08-0.17,0.16-0.26,0.23l0.23-0.21L1207.35-431.94L1207.35-431.94z"/>
				</g>
				<g>
					<path class="st8" d="M1207.09-431.71l-4.43,4.3C1204.1-428.87,1205.59-430.29,1207.09-431.71z"/>
				</g>
				<g>
					<path d="M1641.92-423.43c7.44,6.68,14.2,13.56,20.27,20.61c70.55,81.72,50.22,185.34-51.32,243.57
						c-2.44,1.41-4.92,2.77-7.45,4.12c-0.81,0.43-1.64,0.84-2.46,1.27c-117.5,60.59-287.97,40.9-382.96-44.36
						c-6.1-5.48-11.73-11.09-16.91-16.81l-2.96-3.33c-28.77-33.24-42.51-69.82-42.05-105.55c0.47-36.96,16.15-73.03,46.31-103.25
						l4.69-4.55c13.96-13.03,30.36-24.69,49.43-34.82C1373.56-528.72,1546.12-509.43,1641.92-423.43z"/>
				</g>
			</g>
		</g>
		<g>
			<path class="st9" d="M1370.5-605.66c-136.69,0-247.5,110.06-247.5,245.83c0,24.78,3.7,48.71,10.57,71.27l-0.02-0.06l-2.09-7.26
				l-0.01-0.04c0.68,0.25,1.37,0.49,2.06,0.72c2.45,0.8,4.9,1.56,7.39,2.15c4.94,1.28,9.97,2.03,14.97,2.35
				c5,0.31,9.99,0.07,14.86-0.68c4.88-0.76,9.63-2.01,14.09-3.89c4.48-1.84,8.72-4.23,12.72-7.06c3.99-2.84,7.82-6.01,11.39-9.55
				l1.36-1.3l1.31-1.37c0.87-0.92,1.75-1.81,2.61-2.74l2.54-2.85c0.42-0.47,0.85-0.94,1.26-1.42l1.24-1.47l2.47-2.94l2.39-3.02
				c1.61-2,3.14-4.09,4.7-6.15c6.2-8.3,12.02-16.96,17.57-25.71c5.57-8.76,10.58-17.82,15.34-27c4.72-9.21,8.99-18.64,12.94-28.24
				c3.93-9.61,7.46-19.43,10.88-29.35c1.71-4.96,3.36-9.97,5.03-15c1.67-5.03,3.38-10.07,5.12-15.12c0.89-2.53,1.74-5.06,2.67-7.59
				c0.91-2.53,1.81-5.06,2.8-7.58l1.46-3.78l1.53-3.76c0.99-2.52,2.11-5,3.17-7.5c4.33-9.97,9.48-19.67,15.29-28.92
				c5.87-9.22,12.44-17.98,19.67-26.09c3.57-4.1,7.32-8.02,11.22-11.78c3.9-3.76,7.91-7.39,12.05-10.85
				c8.33-6.88,17.06-13.2,26.23-18.76c1.15-0.7,2.28-1.4,3.44-2.08l0.27-0.15l6.34,0.71c-0.33,0.24-0.67,0.49-1,0.74l-3.18,2.35
				c-1.05,0.79-2.08,1.61-3.12,2.41c-4.15,3.23-8.18,6.6-12.14,10.03c-3.92,3.47-7.76,7.02-11.47,10.68
				c-7.37,7.37-14.3,15.14-20.58,23.39c-6.3,8.21-12.04,16.8-17.04,25.79c-2.53,4.48-4.84,9.07-7.05,13.71
				c-1.08,2.33-2.11,4.7-3.14,7.05c-0.97,2.39-2.02,4.75-2.94,7.16c-3.8,9.61-7.06,19.5-10.24,29.52l-4.69,15.14
				c-1.59,5.06-3.17,10.15-4.84,15.24c-3.28,10.19-6.89,20.36-10.94,30.4c-8.05,20.09-18.17,39.49-30.07,57.59
				c-1.45,2.29-3.03,4.49-4.56,6.72c-0.77,1.12-1.53,2.23-2.31,3.34l-2.39,3.28c-3.18,4.37-6.42,8.7-9.83,12.92
				c-1.72,2.11-3.42,4.22-5.22,6.27l-2.67,3.1l-2.78,3.04l-1.38,1.52c-0.47,0.51-0.96,1-1.44,1.49l-2.9,2.95
				c-1,0.96-2.02,1.91-3.03,2.86l-1.52,1.42l-1.59,1.37c-4.18,3.69-8.7,7.13-13.58,10.1c-4.86,2.98-10.09,5.51-15.57,7.32
				c-5.48,1.82-11.16,2.86-16.82,3.29c-5.67,0.39-11.34,0.13-16.88-0.7c-5.53-0.88-10.94-2.27-16.11-4.17
				c-1.77-0.65-3.51-1.34-5.23-2.09h0c28.37,93.02,110.76,162.73,210.92,173.11l-0.21-0.02l-4.82-0.55
				c10.23-8.56,20.68-16.82,31.22-24.97c14.09-10.88,28.41-21.45,42.88-31.79c14.46-10.34,29.23-20.37,43.7-30.36
				c3.59-2.53,7.19-5.01,10.73-7.57c3.56-2.56,7.06-5.17,10.6-7.81c7.14-5.27,14.22-10.54,21.2-15.89c7-5.32,13.9-10.72,20.64-16.29
				c6.76-5.55,13.36-11.25,19.75-17.16c12.86-11.75,24.78-24.44,35.82-37.96c5.49-6.78,10.77-13.76,15.83-20.92
				c5.1-7.12,9.81-14.54,14.48-21.99c3.99-6.54,7.82-13.2,11.51-19.97v-0.01l0.13,12.15v0.01c-1.65,3.81-3.36,7.59-5.15,11.34
				c-0.97,2.02-1.99,4.02-2.99,6.03l-1.52,3.01l-1.59,2.98l-3.21,5.93l-3.37,5.85c-4.6,7.75-9.46,15.36-14.7,22.73
				c-5.22,7.38-10.82,14.51-16.67,21.43c-5.87,6.92-12.09,13.52-18.49,19.91c-6.44,6.36-13.1,12.48-19.9,18.4
				c-6.84,5.87-13.81,11.56-20.86,17.1c-7.08,5.51-14.21,10.87-21.33,16.19c-7.18,5.33-14.56,10.6-22.03,15.57
				c-7.49,4.96-14.95,9.77-22.47,14.5c-7.48,4.78-15.02,9.45-22.53,14.17c-15.07,9.36-30.19,18.66-45.44,27.79
				c-10.28,6.15-20.58,12.26-31,18.2c8.47,0.87,17.06,1.32,25.76,1.32c136.69,0,247.5-110.06,247.5-245.83
				S1507.19-605.66,1370.5-605.66z"/>
			
				<ellipse transform="matrix(1.783475e-03 -1 1 1.783475e-03 1730.7585 1009.4449)" class="st9" cx="1371" cy="-362.2" rx="243.79" ry="247"/>
			<path class="st5" d="M1138.83-286.35c79.81,31.44,136.9-86.74,156.41-138.88c27.95-91.55,43.54-131.85,106.59-178.47
				c-74.44,23.65-101.22,112.84-124.85,181.81c-28.33,64.9-73.32,154.6-145.54,125.97C1134.37-288.47,1130.63-289.25,1138.83-286.35
				z"/>
			<path class="st5" d="M1421.18-161.31c83.1-50.96,157.48-105.3,194.56-190.08c3.29-4.55,1.98-12.71,2.1-17.22
				c-63.47,122.84-184.12,171.16-278.34,252.7c0.42,0.05,4.78,0.55,5.24,0.6C1370.23-129.92,1395.99-145.68,1421.18-161.31z"/>
		</g>
	</g>
	<g class="st1">
		<ellipse class="st10" cx="1500" cy="-491.5" rx="370" ry="367.5"/>
		<path class="st11" d="M1546.85-856.08c-0.5,0.36-1,0.73-1.49,1.11l-4.75,3.51c-1.57,1.18-3.11,2.41-4.66,3.61
			c-6.21,4.83-12.23,9.86-18.15,14.99c-5.86,5.18-11.6,10.49-17.14,15.97c-11.02,11.02-21.38,22.63-30.76,34.96
			c-9.42,12.28-18,25.11-25.47,38.55c-3.78,6.69-7.24,13.56-10.54,20.5c-1.61,3.49-3.15,7.02-4.7,10.54
			c-1.45,3.58-3.02,7.1-4.4,10.71c-5.68,14.37-10.56,29.15-15.31,44.13l-7.01,22.63c-2.37,7.57-4.74,15.18-7.23,22.79
			c-4.9,15.23-10.3,30.43-16.36,45.44c-12.04,30.04-27.16,59.04-44.96,86.1c-2.17,3.42-4.53,6.71-6.81,10.05
			c-1.15,1.67-2.28,3.34-3.46,4.99l-3.57,4.9c-4.75,6.54-9.59,13-14.69,19.32c-2.57,3.15-5.11,6.31-7.81,9.38l-3.99,4.64l-4.15,4.54
			l-2.07,2.27c-0.7,0.76-1.44,1.49-2.15,2.23l-4.34,4.41c-1.49,1.44-3.02,2.85-4.53,4.27l-2.27,2.13l-2.37,2.05
			c-6.25,5.52-13.01,10.66-20.3,15.1c-7.27,4.45-15.08,8.24-23.27,10.95c-8.19,2.72-16.69,4.27-25.14,4.92
			c-8.48,0.58-16.96,0.2-25.24-1.04c-8.27-1.32-16.35-3.4-24.09-6.23c-2.65-0.97-5.25-2.01-7.82-3.13h-0.01l-0.07-0.26l-3.12-10.86
			l-0.02-0.06c1.02,0.37,2.05,0.73,3.08,1.08c3.66,1.2,7.33,2.33,11.05,3.21c7.39,1.92,14.91,3.03,22.38,3.52
			c7.48,0.46,14.93,0.1,22.22-1.01c7.29-1.13,14.39-3.01,21.06-5.81c6.7-2.75,13.04-6.33,19.02-10.55
			c5.97-4.24,11.69-8.98,17.03-14.27l2.03-1.94l1.96-2.05c1.3-1.37,2.62-2.71,3.9-4.1l3.8-4.26c0.63-0.71,1.27-1.41,1.89-2.13
			l1.85-2.2l3.69-4.4l3.58-4.52c2.41-2.99,4.7-6.11,7.02-9.2c9.27-12.41,17.97-25.36,26.26-38.44
			c8.32-13.09,15.82-26.64,22.94-40.37c7.06-13.77,13.44-27.87,19.35-42.22c5.88-14.37,11.15-29.04,16.27-43.87
			c2.56-7.42,5.03-14.91,7.52-22.42c2.5-7.52,5.05-15.05,7.65-22.61c1.33-3.78,2.6-7.56,3.99-11.34c1.36-3.78,2.71-7.57,4.19-11.33
			l2.18-5.65l2.28-5.62c1.48-3.77,3.15-7.48,4.74-11.21c6.48-14.91,14.17-29.41,22.86-43.24c8.77-13.79,18.6-26.88,29.4-39
			c5.33-6.13,10.94-11.99,16.77-17.61c5.83-5.62,11.82-11.05,18.02-16.22c12.45-10.28,25.5-19.74,39.21-28.05
			c1.72-1.04,3.41-2.1,5.14-3.11l0.41-0.23L1546.85-856.08z"/>
		<path class="st11" d="M1869.96-486.46L1869.96-486.46c-2.46,5.7-5.03,11.36-7.7,16.97c-1.45,3.02-2.98,6.01-4.47,9.02l-2.27,4.5
			l-2.38,4.45l-4.8,8.87l-5.04,8.75c-6.87,11.58-14.14,22.96-21.97,33.98c-7.8,11.04-16.17,21.69-24.92,32.03
			c-8.77,10.34-18.07,20.21-27.64,29.77c-9.63,9.51-19.58,18.65-29.75,27.5c-10.22,8.78-20.64,17.28-31.18,25.56
			c-10.58,8.23-21.25,16.25-31.88,24.21c-10.74,7.97-21.76,15.85-32.93,23.27c-11.19,7.41-22.35,14.6-33.59,21.67
			c-11.18,7.14-22.45,14.12-33.68,21.18c-22.53,14-45.14,27.9-67.93,41.55c-15.37,9.19-30.76,18.33-46.34,27.21h-0.01l-0.63-0.07
			l-7.2-0.82c15.3-12.8,30.92-25.15,46.67-37.33c21.07-16.26,42.47-32.06,64.1-47.53c21.61-15.46,43.69-30.45,65.33-45.38
			c5.36-3.78,10.75-7.49,16.04-11.32c5.32-3.82,10.55-7.73,15.84-11.67c10.67-7.88,21.26-15.75,31.69-23.76
			c10.46-7.95,20.78-16.02,30.85-24.36c10.1-8.29,19.98-16.82,29.53-25.66c19.23-17.57,37.04-36.53,53.55-56.75
			c8.21-10.14,16.1-20.57,23.66-31.27c7.62-10.65,14.67-21.73,21.65-32.88c5.97-9.78,11.69-19.74,17.2-29.85v-0.01L1869.96-486.46z"
			/>
	</g>
</g>
<g id="Burger">
</g>
<g id="Layer_3">
</g>
</svg>
