<?xml version="1.0" encoding="utf-8"?>
<!-- Generator: Adobe Illustrator 23.1.0, SVG Export Plug-In . SVG Version: 6.00 Build 0)  -->
<svg version="1.1" id="Layer_1" xmlns="http://www.w3.org/2000/svg" xmlns:xlink="http://www.w3.org/1999/xlink" x="0px" y="0px"
	 viewBox="0 0 1920 1080" style="enable-background:new 0 0 1920 1080;" xml:space="preserve">
<style type="text/css">
	.st0{fill:#1C1E27;}
	.st1{fill:#FFC300;}
	.st2{display:none;opacity:0.2;fill:#FFFFFF;}
</style>
<g>
	<rect class="st0" width="1920" height="1080"/>
</g>
<g>
	<path class="st1" d="M1911.84,3.59c-112.97,0-213.75,144.77-279.65,371.15c-65.88-226.38-166.7-371.15-279.65-371.15
		C1154,3.59,993,485.3,993,1080h159.83c0-552.25,89.43-999.55,199.71-999.55c110.31,0,199.77,412.9,199.77,922.43h159.77
		c0-509.53,89.43-922.43,199.75-922.43c2.74,0,5.46,0.28,8.17,0.82V3.87C1917.29,3.68,1914.57,3.59,1911.84,3.59z"/>
</g>
<path class="st2" d="M1847.15,0c-109.07,0-206.39,145.32-270.02,372.55C1513.52,145.32,1416.17,0,1307.1,0
	c-191.7,0-347.16,483.52-347.16,1080h154.33c0-553.86,86.35-1002.85,192.83-1002.85c106.52,0,192.9,414.46,192.9,925.73h154.27
	c0.01-511.27,86.36-925.73,192.88-925.73c25.77,0,50.38,26.3,72.85,74.04V23.82C1896.51,8.21,1872.14,0,1847.15,0z"/>
</svg>
