<svg id="Layer_1" data-name="Layer 1" xmlns="http://www.w3.org/2000/svg" viewBox="0 0 160.16 72"><defs><style>.cls-1{fill:#231f20;}</style></defs><title>awl</title><path class="cls-1" d="M43.38,19.08H56.31L67.42,54.47,78,19.08h9.59L98.17,54.47l11.11-35.39h12.93L103.42,72.35h-10L82.79,38.87,72.22,72.35h-10Z" transform="translate(-0.16 -0.35)"/><path class="cls-1" d="M128.21,19.08h12.33V61.39h19.78v11H128.21Z" transform="translate(-0.16 -0.35)"/><path class="cls-1" d="M17.24,7.51A7,7,0,0,1,24.39.35a7.07,7.07,0,0,1,7.23,7.16,7,7,0,0,1-7.23,7.07A7,7,0,0,1,17.24,7.51Z" transform="translate(-0.16 -0.35)"/><polygon class="cls-1" points="30.44 18.73 18.04 18.73 0 72 13.01 72 14.84 65.53 14.84 65.53 24.28 32.2 33.71 65.53 33.71 65.53 35.54 72 48.55 72 30.44 18.73"/></svg>