<svg width="315" height="35" viewBox="0 0 315 35" fill="none" xmlns="http://www.w3.org/2000/svg">
<path d="M13.0818 23.472L23.755 0H28.3832L13.0345 33.696L0 5.088L2.78637 0.96L13.0818 23.472ZM8.45356 0.00319824L15.3959 15.2192L13.0818 20.2592L3.82535 0.00319824H8.45356ZM18.7962 34.608H14.0735L29.4694 0.911997L35.9394 15.168L33.6253 20.256L29.4694 11.088L18.7962 34.608ZM33.6725 23.52L44.0624 0.623999L46.8488 4.704L33.6253 33.696L27.1553 19.44L29.4694 14.304L33.6725 23.52ZM34.6643 34.608L48.1239 5.136H52.7993L39.387 34.608H34.6643ZM50.0129 0.00319824L52.6104 3.8432H47.8877L45.2903 0.00319824H50.0129Z" fill="#2F2F2F"/>
<path d="M61.5835 17.952H78.4906V21.792H61.5835V30.768H78.4906V34.608H57.1914V4.8L61.5835 0.815996V17.952ZM67.2507 11.856L62.8586 15.84V0H84.1578V3.84H67.2507V11.856ZM62.8586 23.088H67.2507V24.624L62.8586 28.656V23.088ZM68.148 12.816H83.0716L78.9156 16.656H63.8976L68.148 12.816ZM68.148 25.632H83.1188L78.9156 29.472H63.9448L68.148 25.632ZM68.5258 5.1392H83.0716L78.8684 8.9792H68.5258V5.1392ZM79.7657 21.024V17.616L84.1578 13.632V16.944L79.7657 21.024ZM79.7657 33.792V30.432L84.1578 26.448V29.808L79.7657 33.792Z" fill="#2F2F2F"/>
<path d="M95.6338 29.76L91.2417 33.792V2.59197L93.6975 0.335972L113.533 31.056L110.274 33.984L95.6338 11.328V29.76ZM100.262 30.768L96.0116 34.608H92.3279L96.5311 30.768H100.262ZM114.997 0.00317383H119.389V30.6272H114.902L95.1143 0.00317383H100.262L114.997 22.8512V0.00317383ZM96.9089 29.472V15.888L101.301 22.704V29.472H96.9089ZM109.329 4.80318L113.722 0.771172V18.2912L109.329 11.5232V4.80318ZM118.444 31.92L115.516 34.608H111.596L114.524 31.92H118.444Z" fill="#2F2F2F"/>
<path d="M123.639 8.97917V5.13917H138.893L134.737 8.97917H123.639ZM145.647 3.84317V29.8112L141.255 33.7952V3.84317H124.773L128.929 0.00317383H156.509L152.306 3.84317H145.647ZM135.587 9.93917L139.98 5.90717V34.6112H135.587V9.93917ZM151.928 5.13917V8.97917H146.922V5.13917H151.928ZM153.203 8.11197V4.79997L157.595 0.767973V4.12797L153.203 8.11197Z" fill="#2F2F2F"/>
<path d="M194.998 12.816C196.226 12.816 196.982 11.856 196.982 10.896C196.982 10.08 196.321 8.976 194.998 8.976H188.859L184.609 5.136H195.093C198.918 5.136 201.374 7.392 201.374 10.704C201.374 12.384 200.618 13.872 199.532 14.832C201.421 16.08 202.743 18.48 202.743 21.408C202.743 26.4 199.627 29.52 194.101 29.52H177.902V0H196.037C202.602 0 207.088 4.32 207.088 10.656C207.088 12.864 206.474 15.216 204.633 17.232L201.468 14.4C202.177 13.344 202.649 12 202.649 10.704C202.649 6.336 199.296 3.84 194.998 3.84H182.294V12.816H194.998ZM195.848 34.656H183.192L178.941 30.816H194.29C199.91 30.816 204.019 27.6 204.019 21.456C204.019 20.208 203.688 18.912 203.169 17.76L204.774 19.152C207.041 21.216 207.891 23.376 207.891 25.824C207.891 30.432 203.594 34.656 195.848 34.656ZM182.294 25.68H193.818C196.698 25.68 198.351 23.616 198.351 21.168C198.351 18.576 196.415 16.656 193.818 16.656H182.294V25.68ZM183.57 5.9552L187.962 9.9872V11.5232H183.57V5.9552ZM183.57 24.384V18.768L187.962 22.8V24.384H183.57ZM193.912 17.952C195.707 17.952 197.076 19.2 197.076 21.168C197.076 21.408 197.029 21.6 197.029 21.792H188.859L184.609 17.952H193.912Z" fill="#2F2F2F"/>
<path d="M218.234 17.952H235.141V21.792H218.234V30.768H235.141V34.608H213.842V4.8L218.234 0.815996V17.952ZM223.901 11.856L219.509 15.84V0H240.808V3.84H223.901V11.856ZM219.509 23.088H223.901V24.624L219.509 28.656V23.088ZM224.795 12.816H239.719L235.563 16.656H220.545L224.795 12.816ZM224.795 25.632H239.766L235.563 29.472H220.592L224.795 25.632ZM225.176 5.1392H239.722L235.519 8.9792H225.176V5.1392ZM236.413 21.024V17.616L240.805 13.632V16.944L236.413 21.024ZM236.413 33.792V30.432L240.805 26.448V29.808L236.413 33.792Z" fill="#2F2F2F"/>
<path d="M252.284 29.76L247.892 33.792V2.59197L250.348 0.335972L270.183 31.056L266.924 33.984L252.284 11.328V29.76ZM256.909 30.768L252.659 34.608H248.975L253.178 30.768H256.909ZM271.644 0.00317383H276.036V30.6272H271.549L251.762 0.00317383H256.909L271.644 22.8512V0.00317383ZM253.559 29.472V15.888L257.951 22.704V29.472H253.559ZM265.977 4.80318L270.369 0.771172V18.2912L265.977 11.5232V4.80318ZM275.091 31.92L272.163 34.608H268.244L271.172 31.92H275.091Z" fill="#2F2F2F"/>
<path d="M280.286 8.97917V5.13917H295.54L291.384 8.97917H280.286ZM302.294 3.84317V29.8112L297.902 33.7952V3.84317H281.42L285.576 0.00317383H313.156L308.953 3.84317H302.294ZM292.234 9.93917L296.627 5.90717V34.6112H292.234V9.93917ZM308.575 5.13917V8.97917H303.569V5.13917H308.575ZM309.85 8.11197V4.79997L314.242 0.767973V4.12797L309.85 8.11197Z" fill="#2F2F2F"/>
</svg>
