<?xml version="1.0" encoding="utf-8"?>
<!-- Generator: Adobe Illustrator 23.0.6, SVG Export Plug-In . SVG Version: 6.00 Build 0)  -->
<svg version="1.1" id="Layer_1" xmlns="http://www.w3.org/2000/svg" xmlns:xlink="http://www.w3.org/1999/xlink" x="0px" y="0px"
	 viewBox="0 0 54 27" style="enable-background:new 0 0 54 27;" xml:space="preserve">
<style type="text/css">
	.st0{fill-rule:evenodd;clip-rule:evenodd;fill:#E3000B;}
</style>
<path class="st0" d="M38.88,0L54,26.53h-7.65l-1.66-2.88h-7.61l2.66-4.67h2.29l-3.14-5.54l-3.29,5.75c-0.52,0.9-1.03,1.69-1.55,2.37
	C31.53,24.88,27.46,27,22.95,27C15.38,27,9.2,21,9.2,13.63c0-7.37,6.17-13.38,13.75-13.38c2.59,0,4.92,0.68,6.95,1.83L26.65,7.8
	c-1.12-0.66-2.4-1-3.7-1.01c-3.88,0-7.02,3.06-7.02,6.83c0,3.78,3.14,6.83,7.02,6.83c2.11,0,3.84-0.86,5.1-2.12
	c0.56-0.54,1.18-1.44,1.37-1.76L38.88,0z M0,26.53V0.72h6.73v25.81L0,26.53L0,26.53z"/>
</svg>
