<?xml version="1.0" encoding="utf-8"?>
<!-- Generator: Adobe Illustrator 24.2.1, SVG Export Plug-In . SVG Version: 6.00 Build 0)  -->
<svg version="1.1" id="Layer_1" xmlns="http://www.w3.org/2000/svg" xmlns:xlink="http://www.w3.org/1999/xlink" x="0px" y="0px"
	 viewBox="0 0 314 69.96" style="enable-background:new 0 0 314 69.96;" xml:space="preserve">
<g>
	<path d="M217.09,32.3l3.71-0.26c8.37-0.57,14.85-7.52,14.85-15.9v-0.2c0-8.81-7.13-15.94-15.94-15.94h-52.43v23.62l33.82-13.24
		c3.07-1.2,6.39,1.07,6.39,4.36l0,0c0,2.14-1.44,4.01-3.51,4.54l-30.77,8.02c-3.49,0.91-5.93,4.06-5.93,7.68l0,0
		c0,3.62,2.44,6.76,5.93,7.68l30.77,8.02c2.07,0.54,3.51,2.4,3.51,4.54l0,0c0,3.31-3.32,5.56-6.39,4.36l-33.82-13.24v23.62h52.43
		c8.81,0,15.94-7.13,15.94-15.94l0,0c0-8.42-6.54-15.39-14.94-15.9l-3.6-0.22c-1.48-0.09-2.62-1.31-2.62-2.79l0,0
		C214.49,33.61,215.61,32.4,217.09,32.3z"/>
	<path d="M42.83,40.23L42.83,40.23c-2.83,0-5.08-2.38-4.91-5.23L40.1,0H0v69.94h31.49L18.25,36.13c-1.2-3.07,1.07-6.39,4.36-6.39
		l0,0c2.14,0,4.01,1.44,4.54,3.51l8.02,30.77c0.91,3.49,4.06,5.93,7.68,5.93l0,0c3.62,0,6.76-2.44,7.68-5.93l8.02-30.77
		c0.54-2.07,2.4-3.51,4.54-3.51l0,0c3.31,0,5.56,3.32,4.36,6.39L54.21,69.94H85.7V0H70.31c-13.5,0-24.18,11.43-23.25,24.9
		l0.68,10.07C47.93,37.83,45.68,40.23,42.83,40.23z"/>
	<path d="M240.55,22.09L240.55,22.09c0,10.05,6.8,18.84,16.53,21.37l20.19,5.26c2.07,0.54,3.51,2.4,3.51,4.54l0,0
		c0,3.31-3.32,5.56-6.39,4.36L240.55,44.4v25.56h51.36c12.19,0,22.09-9.88,22.09-22.09l0,0c0-10.05-6.8-18.84-16.53-21.37
		l-20.19-5.26c-2.07-0.54-3.51-2.4-3.51-4.54l0,0c0-3.31,3.32-5.56,6.39-4.36l17.92,7.02c7.65,2.99,15.9-2.64,15.9-10.86V0.02
		h-51.36C250.43,0,240.55,9.9,240.55,22.09z"/>
	<path d="M91.17,69.96h12.93c10.58,0,18.86-8.64,18.4-19.21L121.81,35c-0.13-2.86,2.16-5.25,5.02-5.25l0,0
		c2.86,0,5.13,2.38,5.02,5.25l-1.51,34.98h31.47l-5.25-69.94h-33.12C108.19,0.04,95.52,11.8,94.38,27L91.17,69.96z"/>
</g>
</svg>
